<?xml version="1.0" encoding="iso-8859-1"?>
<!-- Uploaded to: SVG Repo, www.svgrepo.com, Generator: SVG Repo Mixer Tools -->
<svg version="1.1" id="Layer_1" xmlns="http://www.w3.org/2000/svg" xmlns:xlink="http://www.w3.org/1999/xlink" 
	 viewBox="0 0 358.567 358.567" xml:space="preserve">
<g>
	<path style="fill:#E8E8E8;" d="M351.067,281.516c0,13.75-11.25,25-25,25H32.5c-13.75,0-25-11.25-25-25V77.051
		c0-13.75,11.25-25,25-25h293.567c13.75,0,25,11.25,25,25V281.516z"/>
	<path style="fill:#333E48;" d="M326.067,52.051H32.5c-13.75,0-25,11.25-25,25v11.82h343.567v-11.82
		C351.067,63.301,339.817,52.051,326.067,52.051z"/>
	<g>
		<rect x="52.099" y="122.538" style="fill:#61B4E4;" width="85.651" height="81.034"/>
		<rect x="168.072" y="122.538" style="fill:#005CB9;" width="139.73" height="33.759"/>
		<rect x="52.099" y="221.942" style="fill:#005CB9;" width="115.973" height="41.263"/>
		<rect x="260.288" y="221.942" style="fill:#005CB9;" width="47.514" height="41.263"/>
		<rect x="190.422" y="221.942" style="fill:#61B4E4;" width="47.515" height="41.263"/>
	</g>
	<path style="fill:#071C2C;" d="M206.121,164.209l13.436,47.848l7.085-17.545l18.665,18.664l9.781-9.783l-18.664-18.664
		l17.544-7.084L206.121,164.209z M307.802,214.442h-47.514c-4.142,0-7.5,3.357-7.5,7.5v41.263c0,4.143,3.358,7.5,7.5,7.5h47.514
		c4.142,0,7.5-3.357,7.5-7.5v-41.263C315.302,217.8,311.944,214.442,307.802,214.442z M300.302,255.705h-32.514v-26.263h32.514
		V255.705z M326.067,44.551H32.5C14.58,44.551,0,59.13,0,77.051v204.465c0,17.921,14.58,32.5,32.5,32.5h293.567
		c17.92,0,32.5-14.579,32.5-32.5V77.051C358.567,59.13,343.988,44.551,326.067,44.551z M343.567,281.516
		c0,9.649-7.851,17.5-17.5,17.5H32.5c-9.649,0-17.5-7.851-17.5-17.5V96.371h328.567V281.516z M343.567,81.371H15v-4.32
		c0-9.649,7.851-17.5,17.5-17.5h293.567c9.649,0,17.5,7.851,17.5,17.5V81.371z M237.937,214.442h-47.515c-4.142,0-7.5,3.357-7.5,7.5
		v41.263c0,4.143,3.358,7.5,7.5,7.5h47.515c4.142,0,7.5-3.357,7.5-7.5v-41.263C245.437,217.8,242.079,214.442,237.937,214.442z
		 M230.437,255.705h-32.515v-26.263h32.515V255.705z M39.617,62.204c-4.56,0-8.257,3.696-8.257,8.257s3.697,8.257,8.257,8.257
		s8.257-3.696,8.257-8.257S44.177,62.204,39.617,62.204z M52.099,270.705h115.973c4.142,0,7.5-3.357,7.5-7.5v-41.263
		c0-4.143-3.358-7.5-7.5-7.5H52.099c-4.142,0-7.5,3.357-7.5,7.5v41.263C44.599,267.348,47.957,270.705,52.099,270.705z
		 M59.599,229.442h100.973v26.263H59.599V229.442z M100.437,62.204c-4.56,0-8.257,3.696-8.257,8.257s3.697,8.257,8.257,8.257
		s8.257-3.696,8.257-8.257S104.997,62.204,100.437,62.204z M52.099,211.072h85.651c4.142,0,7.5-3.357,7.5-7.5v-81.034
		c0-4.143-3.358-7.5-7.5-7.5H52.099c-4.142,0-7.5,3.357-7.5,7.5v81.034C44.599,207.715,47.957,211.072,52.099,211.072z
		 M59.599,130.038h70.651v66.034H59.599V130.038z M168.072,163.797h139.73c4.142,0,7.5-3.357,7.5-7.5v-33.759
		c0-4.143-3.358-7.5-7.5-7.5h-139.73c-4.142,0-7.5,3.357-7.5,7.5v33.759C160.572,160.439,163.93,163.797,168.072,163.797z
		 M175.572,130.038h124.73v18.759h-124.73L175.572,130.038L175.572,130.038z M70.027,62.204c-4.56,0-8.257,3.696-8.257,8.257
		s3.697,8.257,8.257,8.257s8.257-3.696,8.257-8.257S74.587,62.204,70.027,62.204z"/>
</g>
</svg>